<svg width="25" height="25" viewBox="0 0 25 25" fill="none" xmlns="http://www.w3.org/2000/svg">
<path d="M11.5257 3.49988C7.0113 3.99884 3.5 7.82559 3.5 12.4723C3.5 17.4581 7.54239 21.4999 12.5289 21.4999C17.168 21.4999 20.9898 18.0018 21.5 13.4999" stroke="#141B34" stroke-width="1.5" stroke-linecap="round"/>
<path d="M21.4995 6.52517L20.5 6.52264C16.7634 6.51319 14.8951 6.50847 13.5817 7.45254C13.1452 7.76627 12.7622 8.14832 12.4474 8.584C11.5 9.89503 11.5 11.7633 11.5 15.4999M21.4995 6.52517C21.5062 6.36254 21.4481 6.19894 21.3251 6.05321C20.5599 5.14674 18.5711 3.49988 18.5711 3.49988M21.4995 6.52517C21.4934 6.671 21.4352 6.81604 21.3249 6.94669C20.5596 7.85298 18.5711 9.49988 18.5711 9.49988" stroke="#141B34" stroke-width="1.5" stroke-linecap="round" stroke-linejoin="round"/>
</svg>
