<svg width="21" height="21" viewBox="0 0 21 21" fill="none" xmlns="http://www.w3.org/2000/svg">
<path d="M3.83334 15.484V8.5896C3.83334 5.56179 3.83334 4.04789 4.80965 3.10727C5.78596 2.16666 7.35731 2.16666 10.5 2.16666C13.6427 2.16666 15.2141 2.16666 16.1904 3.10727C17.1667 4.04789 17.1667 5.56179 17.1667 8.5896V15.484C17.1667 17.4055 17.1667 18.3663 16.5226 18.7102C15.2755 19.3762 12.936 17.1543 11.825 16.4853C11.1807 16.0973 10.8585 15.9034 10.5 15.9034C10.1415 15.9034 9.81935 16.0973 9.17501 16.4853C8.06401 17.1543 5.72457 19.3762 4.47738 18.7102C3.83334 18.3663 3.83334 17.4055 3.83334 15.484Z" stroke="#141B34" stroke-width="1.5" stroke-linecap="round" stroke-linejoin="round"/>
</svg>
