<svg width="40" height="40" viewBox="0 0 40 40" fill="none" xmlns="http://www.w3.org/2000/svg">
<path fill-rule="evenodd" clip-rule="evenodd" d="M29.5121 12.217C29.8203 12.581 29.8825 13.0901 29.6635 13.5139C28.8207 15.1445 27.5626 16.8647 29.4873 18.0769C30.5921 18.8007 32.0562 19.2063 33.5953 19.5178C34.3128 19.663 34.337 20.6183 33.6294 20.8057C32.1539 21.1964 30.7315 21.7111 29.4873 22.6585C27.6559 24.053 28.7906 25.0286 29.6604 26.6488C29.886 27.0691 29.8203 27.5804 29.5121 27.9444C29.1809 28.3355 28.8254 28.7061 28.4481 29.0541C28.15 29.329 27.6815 29.2545 27.4612 28.914L24.4989 24.3372C23.0274 21.6048 22.9876 18.556 24.4989 15.8242L27.4612 11.2474C27.6815 10.907 28.15 10.8324 28.4481 11.1073C28.8254 11.4553 29.1809 11.826 29.5121 12.217ZM20.2796 7.7753C20.912 7.79591 21.407 8.30039 21.4782 8.92912L22.6043 18.8721C22.6952 19.6754 22.6952 20.4861 22.6043 21.2893L21.4782 31.2323C21.407 31.861 20.912 32.3655 20.2796 32.3861C20.1388 32.3907 19.9974 32.393 19.8555 32.393C19.7855 32.393 19.7157 32.3925 19.646 32.3913C19.0055 32.3811 18.4992 31.8732 18.4271 31.2366L17.3006 21.2893C17.2097 20.4861 17.2097 19.6754 17.3006 18.8721L18.4271 8.92478C18.4992 8.28825 19.0055 7.78037 19.6461 7.77008C19.7157 7.76896 19.7855 7.7684 19.8555 7.7684C19.9974 7.7684 20.1388 7.77071 20.2796 7.7753ZM11.3913 10.9906C11.6905 10.7222 12.1535 10.799 12.3719 11.1365L15.4059 15.8242C16.8351 18.555 16.8557 21.6044 15.4059 24.3372L12.3719 29.0249C12.1535 29.3624 11.6905 29.4392 11.3913 29.1708C10.9503 28.7754 10.5383 28.3495 10.1586 27.8965C9.8536 27.5327 9.78705 27.0217 10.0362 26.6176C11.0259 25.0121 12.7493 23.8807 10.8086 22.6585C9.77693 21.7524 8.13184 21.2289 6.40491 20.8092C5.68778 20.6349 5.72042 19.6994 6.44766 19.5739C8.14155 19.2814 9.75202 18.8815 10.8086 18.0769C12.5532 16.7485 10.9681 15.2297 10.0227 13.5509C9.78981 13.1372 9.8536 12.6287 10.1586 12.2649C10.5383 11.8119 10.9503 11.386 11.3913 10.9906Z" fill="black"/>
</svg>
