<svg width="128" height="23" viewBox="0 0 128 23" fill="none" xmlns="http://www.w3.org/2000/svg">
<path d="M119.263 9.18403L117.043 16.8521H114.319L110.506 5.95758H113.334L115.786 13.7513L117.985 5.95758H120.52L122.72 13.7513L125.172 5.95758H128L124.187 16.8521H121.463L119.263 9.18403Z" fill="black"/>
<path d="M104.412 17.1035C103.281 17.1035 102.296 16.8591 101.458 16.3702C100.634 15.8814 99.9988 15.204 99.5518 14.338C99.1188 13.472 98.9023 12.4943 98.9023 11.4049C98.9023 10.3154 99.1188 9.33771 99.5518 8.47173C99.9988 7.60576 100.634 6.92835 101.458 6.43949C102.296 5.95064 103.281 5.70621 104.412 5.70621C105.544 5.70621 106.522 5.95064 107.346 6.43949C108.184 6.92835 108.819 7.60576 109.252 8.47173C109.699 9.33771 109.923 10.3154 109.923 11.4049C109.923 12.4943 109.699 13.472 109.252 14.338C108.819 15.204 108.184 15.8814 107.346 16.3702C106.522 16.8591 105.544 17.1035 104.412 17.1035ZM101.584 11.4049C101.584 12.4943 101.815 13.3533 102.275 13.9818C102.75 14.5964 103.463 14.9037 104.412 14.9037C105.362 14.9037 106.068 14.5964 106.528 13.9818C107.003 13.3533 107.241 12.4943 107.241 11.4049C107.241 10.3154 107.003 9.46341 106.528 8.84885C106.068 8.22032 105.362 7.90606 104.412 7.90606C103.463 7.90606 102.75 8.22032 102.275 8.84885C101.815 9.46341 101.584 10.3154 101.584 11.4049Z" fill="black"/>
<path d="M95.4201 1.76736V13.7932C95.4201 14.1564 95.4969 14.4217 95.6506 14.5893C95.8042 14.743 96.0766 14.8198 96.4676 14.8198H97.8923V16.8521H95.7972C94.8055 16.8521 94.0513 16.6495 93.5345 16.2445C93.0317 15.8255 92.7803 15.0992 92.7803 14.0656V1.76736H95.4201Z" fill="black"/>
<path d="M85.9366 4.55384C85.9366 3.52026 86.188 2.80094 86.6908 2.39589C87.2076 1.97687 87.9618 1.76736 88.9535 1.76736H91.321V3.79961H89.603C89.2259 3.79961 88.9535 3.88341 88.7859 4.05102C88.6323 4.20466 88.5554 4.46305 88.5554 4.8262V5.95755H91.321V7.9898H88.5554V16.8521H85.9366V7.9898H84.03V5.95755H85.9366V4.55384Z" fill="black"/>
<path d="M77.7271 17.1035C76.5958 17.1035 75.6111 16.8591 74.7731 16.3702C73.949 15.8814 73.3135 15.204 72.8665 14.338C72.4335 13.472 72.217 12.4943 72.217 11.4049C72.217 10.3154 72.4335 9.33771 72.8665 8.47173C73.3135 7.60576 73.949 6.92835 74.7731 6.43949C75.6111 5.95064 76.5958 5.70621 77.7271 5.70621C78.8585 5.70621 79.8362 5.95064 80.6603 6.43949C81.4983 6.92835 82.1338 7.60576 82.5668 8.47173C83.0138 9.33771 83.2372 10.3154 83.2372 11.4049C83.2372 12.4943 83.0138 13.472 82.5668 14.338C82.1338 15.204 81.4983 15.8814 80.6603 16.3702C79.8362 16.8591 78.8585 17.1035 77.7271 17.1035ZM74.8988 11.4049C74.8988 12.4943 75.1292 13.3533 75.5901 13.9818C76.065 14.5964 76.7774 14.9037 77.7271 14.9037C78.6769 14.9037 79.3823 14.5964 79.8432 13.9818C80.3181 13.3533 80.5555 12.4943 80.5555 11.4049C80.5555 10.3154 80.3181 9.46341 79.8432 8.84885C79.3823 8.22032 78.6769 7.90606 77.7271 7.90606C76.7774 7.90606 76.065 8.22032 75.5901 8.84885C75.1292 9.46341 74.8988 10.3154 74.8988 11.4049Z" fill="black"/>
<path d="M68.0037 10.2945C68.0037 9.5961 67.8361 9.04439 67.5008 8.63934C67.1656 8.22032 66.6349 8.01081 65.9086 8.01081C65.3359 8.01081 64.7912 8.19937 64.2744 8.57649C63.7716 8.9536 63.4783 9.56816 63.3945 10.4202V16.8521H60.7546V5.95762H63.3107V7.44514C63.7157 6.91438 64.2046 6.49536 64.7772 6.18808C65.3499 5.86683 66.0063 5.70621 66.7466 5.70621C67.9757 5.70621 68.9255 6.09729 69.5959 6.87946C70.2803 7.64766 70.6225 8.68124 70.6225 9.9802V16.8521H68.0037V10.2945Z" fill="black"/>
<path d="M53.7958 17.1035C52.6924 17.1035 51.7356 16.8591 50.9255 16.3702C50.1154 15.8674 49.4938 15.19 49.0609 14.338C48.6279 13.472 48.4114 12.4943 48.4114 11.4049C48.4114 10.3154 48.6279 9.34469 49.0609 8.49268C49.4938 7.62671 50.1154 6.9493 50.9255 6.46044C51.7356 5.95762 52.6924 5.70621 53.7958 5.70621C54.8992 5.70621 55.8559 5.95064 56.6661 6.43949C57.4762 6.92835 58.0977 7.61973 58.5307 8.51363C58.9637 9.40754 59.1802 10.4411 59.1802 11.6144V12.2429H51.0302C51.142 13.1089 51.4353 13.7933 51.9102 14.2961C52.399 14.785 53.0276 15.0294 53.7958 15.0294C55.0528 15.0294 55.9188 14.5266 56.3937 13.5209H58.9707C58.6075 14.6243 57.972 15.4973 57.0641 16.1398C56.1562 16.7823 55.0668 17.1035 53.7958 17.1035ZM56.5194 10.3573C56.3797 9.54721 56.0724 8.91869 55.5976 8.47173C55.1366 8.01081 54.536 7.78035 53.7958 7.78035C53.0555 7.78035 52.4479 8.01081 51.973 8.47173C51.5121 8.91869 51.2048 9.54721 51.0512 10.3573H56.5194Z" fill="black"/>
<path d="M41.2992 21.2937C39.7908 21.2937 38.6105 20.9585 37.7585 20.2881C36.9205 19.6176 36.4596 18.6888 36.3758 17.5016H38.9527C39.1064 18.6609 39.9165 19.2405 41.383 19.2405C43.2407 19.2405 44.1695 18.3466 44.1695 16.5588V15.2598C43.3873 16.3074 42.27 16.8312 40.8174 16.8312C39.7838 16.8312 38.8969 16.5937 38.1566 16.1188C37.4303 15.63 36.8786 14.9665 36.5015 14.1285C36.1243 13.2905 35.9358 12.3337 35.9358 11.2582C35.9358 10.1967 36.1243 9.24692 36.5015 8.40888C36.8786 7.55687 37.4303 6.89343 38.1566 6.41854C38.8969 5.94365 39.7838 5.70621 40.8174 5.70621C42.3258 5.70621 43.4711 6.2649 44.2533 7.38228V5.95762H46.8093V16.5588C46.8093 18.1231 46.2995 19.3034 45.2799 20.0995C44.2603 20.8956 42.9334 21.2937 41.2992 21.2937ZM38.6175 11.2582C38.6175 12.3197 38.848 13.1578 39.3089 13.7723C39.7838 14.3729 40.4891 14.6732 41.4249 14.6732C42.3468 14.6732 43.0382 14.3729 43.4991 13.7723C43.974 13.1578 44.2114 12.3197 44.2114 11.2582C44.2114 10.1967 43.974 9.36564 43.4991 8.76505C43.0382 8.15048 42.3468 7.8432 41.4249 7.8432C40.4891 7.8432 39.7838 8.15048 39.3089 8.76505C38.848 9.36564 38.6175 10.1967 38.6175 11.2582Z" fill="black"/>
<path fill-rule="evenodd" clip-rule="evenodd" d="M24.5308 4.15068C24.8184 4.4903 24.8764 4.96528 24.6721 5.36065C23.8857 6.88209 22.7119 8.4871 24.5078 9.61808C25.5385 10.2934 26.9046 10.6718 28.3406 10.9625C29.01 11.0979 29.0326 11.9892 28.3724 12.1641C26.9958 12.5286 25.6686 13.0088 24.5078 13.8928C22.799 15.1939 23.8577 16.1041 24.6692 17.6159C24.8798 18.008 24.8184 18.4851 24.5308 18.8247C24.2218 19.1896 23.8902 19.5354 23.5381 19.86C23.2599 20.1165 22.8229 20.047 22.6173 19.7294L19.8534 15.4591C18.4805 12.9097 18.4433 10.0651 19.8534 7.51625L22.6173 3.24597C22.8229 2.92834 23.2599 2.85882 23.5381 3.11531C23.8902 3.43998 24.2218 3.78579 24.5308 4.15068ZM15.9167 0.00643665C16.5068 0.0256611 16.9686 0.496355 17.0351 1.08297L18.0857 10.36C18.1706 11.1095 18.1706 11.8659 18.0857 12.6153L17.0351 21.8924C16.9686 22.479 16.5068 22.9497 15.9167 22.9689C15.7853 22.9732 15.6534 22.9754 15.521 22.9754C15.4557 22.9754 15.3906 22.9748 15.3256 22.9738C14.728 22.9642 14.2556 22.4903 14.1883 21.8964L13.1373 12.6153C13.0524 11.8659 13.0524 11.1095 13.1373 10.36L14.1883 1.07893C14.2556 0.485027 14.728 0.0111619 15.3256 0.00156751C15.3906 0.000523854 15.4557 0 15.521 0C15.6534 0 15.7853 0.00215683 15.9167 0.00643665ZM7.62367 3.0064C7.90289 2.75598 8.33484 2.82764 8.53862 3.1425L11.3695 7.51625C12.703 10.0641 12.7221 12.9093 11.3695 15.4591L8.53863 19.8329C8.33484 20.1477 7.9029 20.2194 7.62368 19.969C7.21229 19.6 6.82783 19.2026 6.47354 18.78C6.18901 18.4406 6.12691 17.9637 6.35934 17.5867C7.28278 16.0888 8.8908 15.0331 7.08007 13.8928C6.11748 13.0474 4.58256 12.559 2.9713 12.1674C2.3022 12.0048 2.33265 11.1319 3.01118 11.0148C4.59162 10.7419 6.09423 10.3688 7.08007 9.61808C8.70776 8.37865 7.22888 6.96162 6.34681 5.39518C6.12949 5.00925 6.189 4.53479 6.47354 4.19537C6.82783 3.77273 7.21229 3.37535 7.62367 3.0064Z" fill="black"/>
</svg>
