<svg width="24" height="24" viewBox="0 0 24 24" fill="none" xmlns="http://www.w3.org/2000/svg">
<circle cx="12" cy="12" r="10" fill="#FFFF5B"/>
<path d="M14 2.20004C13.3538 2.06886 12.6849 2 12 2C6.47715 2 2 6.47715 2 12C2 17.5228 6.47715 22 12 22C17.5228 22 22 17.5228 22 12C22 11.3151 21.9311 10.6462 21.8 10" stroke="#141B34" stroke-width="1.5" stroke-linecap="round"/>
<path d="M22.5235 2.53687C22.8177 2.24534 22.8199 1.77047 22.5284 1.47623C22.2369 1.18198 21.762 1.17977 21.4678 1.4713L22.5235 2.53687ZM17.9673 6.77706L18.0981 6.03856L18.0981 6.03856L17.9673 6.77706ZM17.2228 6.03238L17.9614 5.90172L17.9614 5.90172L17.2228 6.03238ZM21.4855 7.74987C21.8997 7.75554 22.24 7.42438 22.2457 7.0102C22.2514 6.59603 21.9202 6.25568 21.506 6.25001L21.4855 7.74987ZM17.7499 2.49381C17.7442 2.07964 17.4039 1.7485 16.9897 1.7542C16.5755 1.75989 16.2444 2.10027 16.2501 2.51444L17.7499 2.49381ZM17.9815 7.03691L22.5235 2.53687L21.4678 1.4713L16.9258 5.97134L17.9815 7.03691ZM18.0981 6.03856C18.0452 6.02919 18.0173 6.00888 18.0018 5.99229L16.9054 7.01596C17.1517 7.27972 17.4767 7.45186 17.8365 7.51557L18.0981 6.03856ZM18.0018 5.99229C17.9874 5.97686 17.9699 5.94983 17.9614 5.90172L16.4843 6.16304C16.5413 6.48498 16.6851 6.78001 16.9054 7.01596L18.0018 5.99229ZM17.8365 7.51557C18.8512 7.69528 20.6487 7.73842 21.4855 7.74987L21.506 6.25001C20.6385 6.23814 18.9701 6.19299 18.0981 6.03856L17.8365 7.51557ZM16.2501 2.51444C16.2616 3.35126 16.3048 5.14848 16.4843 6.16304L17.9614 5.90172C17.8071 5.02965 17.7619 3.36129 17.7499 2.49381L16.2501 2.51444Z" fill="#141B34"/>
<path d="M12 9C10.8954 9 10 9.67157 10 10.5C10 11.3284 10.8954 12 12 12C13.1046 12 14 12.6716 14 13.5C14 14.3284 13.1046 15 12 15M12 9C12.8708 9 13.6116 9.4174 13.8862 10M12 9V8M12 15C11.1292 15 10.3884 14.5826 10.1138 14M12 15V16" stroke="#ABAB18" stroke-width="1.5" stroke-linecap="round"/>
</svg>
